<svg height="512" viewBox="0 0 64 64" width="512" xmlns="http://www.w3.org/2000/svg" xmlns:xlink="http://www.w3.org/1999/xlink"><linearGradient id="New_Gradient_Swatch_3" gradientUnits="userSpaceOnUse" x1="20.5" x2="20.5" y1="65.593" y2="2.484"><stop offset="0" stop-color="#006df0"/><stop offset="1" stop-color="#00e7f0"/></linearGradient><linearGradient id="New_Gradient_Swatch_3-2" x1="31.5" x2="31.5" xlink:href="#New_Gradient_Swatch_3" y1="65.593" y2="2.484"/><linearGradient id="New_Gradient_Swatch_3-3" x1="26" x2="26" xlink:href="#New_Gradient_Swatch_3" y1="65.593" y2="2.484"/><linearGradient id="New_Gradient_Swatch_3-4" x1="22" x2="22" xlink:href="#New_Gradient_Swatch_3" y1="65.593" y2="2.484"/><linearGradient id="New_Gradient_Swatch_3-5" x1="28" x2="28" xlink:href="#New_Gradient_Swatch_3" y1="65.593" y2="2.484"/><linearGradient id="New_Gradient_Swatch_3-6" x1="29" x2="29" xlink:href="#New_Gradient_Swatch_3" y1="65.593" y2="2.484"/><linearGradient id="New_Gradient_Swatch_3-7" x1="45.5" x2="45.5" xlink:href="#New_Gradient_Swatch_3" y1="65.593" y2="2.484"/><linearGradient id="New_Gradient_Swatch_3-8" x1="24" x2="24" xlink:href="#New_Gradient_Swatch_3" y1="65.593" y2="2.484"/><linearGradient id="New_Gradient_Swatch_3-9" x1="33" x2="33" xlink:href="#New_Gradient_Swatch_3" y1="65.593" y2="2.484"/><linearGradient id="New_Gradient_Swatch_3-10" x1="43" x2="43" xlink:href="#New_Gradient_Swatch_3" y1="65.593" y2="2.484"/><linearGradient id="New_Gradient_Swatch_3-12" x1="39" x2="39" xlink:href="#New_Gradient_Swatch_3" y1="65.593" y2="2.484"/><linearGradient id="New_Gradient_Swatch_3-13" x1="38" x2="38" xlink:href="#New_Gradient_Swatch_3" y1="65.593" y2="2.484"/><linearGradient id="New_Gradient_Swatch_3-14" x1="32" x2="32" xlink:href="#New_Gradient_Swatch_3" y1="65.593" y2="2.484"/><linearGradient id="New_Gradient_Swatch_3-15" x1="37" x2="37" xlink:href="#New_Gradient_Swatch_3" y1="65.593" y2="2.484"/><linearGradient id="New_Gradient_Swatch_3-16" x1="40" x2="40" xlink:href="#New_Gradient_Swatch_3" y1="65.593" y2="2.484"/><linearGradient id="New_Gradient_Swatch_3-18" x1="46" x2="46" xlink:href="#New_Gradient_Swatch_3" y1="65.593" y2="2.484"/><linearGradient id="New_Gradient_Swatch_3-19" x1="49" x2="49" xlink:href="#New_Gradient_Swatch_3" y1="65.593" y2="2.484"/><linearGradient id="New_Gradient_Swatch_3-20" x1="52" x2="52" xlink:href="#New_Gradient_Swatch_3" y1="65.593" y2="2.484"/><linearGradient id="New_Gradient_Swatch_3-21" x1="55" x2="55" xlink:href="#New_Gradient_Swatch_3" y1="65.593" y2="2.484"/><linearGradient id="New_Gradient_Swatch_3-32" x1="58" x2="58" xlink:href="#New_Gradient_Swatch_3" y1="65.593" y2="2.484"/><linearGradient id="New_Gradient_Swatch_3-35" x1="34" x2="34" xlink:href="#New_Gradient_Swatch_3" y1="65.593" y2="2.484"/><linearGradient id="New_Gradient_Swatch_3-38" x1="15" x2="15" xlink:href="#New_Gradient_Swatch_3" y1="65.593" y2="2.484"/><path d="m18.445 14.832 3 2a1 1 0 1 0 1.11-1.664l-1.755-1.168 1.752-1.168a1 1 0 0 0 -1.11-1.664l-3 2a1 1 0 0 0 0 1.664z" fill="url(#New_Gradient_Swatch_3)"/><path d="m29.168 16.555a1 1 0 0 0 1.387.277l3-2a1 1 0 0 0 0-1.664l-3-2a1 1 0 0 0 -1.11 1.664l1.755 1.168-1.752 1.168a1 1 0 0 0 -.28 1.387z" fill="url(#New_Gradient_Swatch_3-2)"/><path d="m24.684 17.949a1 1 0 0 0 1.264-.633l2-6a1 1 0 1 0 -1.9-.632l-2 6a1 1 0 0 0 .636 1.265z" fill="url(#New_Gradient_Swatch_3-3)"/><path d="m19 19h6v2h-6z" fill="url(#New_Gradient_Swatch_3-4)"/><path d="m27 19h2v2h-2z" fill="url(#New_Gradient_Swatch_3-5)"/><path d="m23 22h12v2h-12z" fill="url(#New_Gradient_Swatch_3-6)"/><path d="m41 22h9v2h-9z" fill="url(#New_Gradient_Swatch_3-7)"/><path d="m23 25h2v2h-2z" fill="url(#New_Gradient_Swatch_3-8)"/><path d="m27 25h12v2h-12z" fill="url(#New_Gradient_Swatch_3-9)"/><path d="m41 25h4v2h-4z" fill="url(#New_Gradient_Swatch_3-10)"/><path d="m30 28h6v2h-6z" fill="url(#New_Gradient_Swatch_3-9)"/><path d="m38 28h2v2h-2z" fill="url(#New_Gradient_Swatch_3-12)"/><path d="m37 22h2v2h-2z" fill="url(#New_Gradient_Swatch_3-13)"/><path d="m61 48h-17.184a2.966 2.966 0 0 0 .184-1 3 3 0 0 0 -3-3h-3.279l-1.334-4h14.613a5.006 5.006 0 0 0 5-5v-28a5.006 5.006 0 0 0 -5-5h-38a5.006 5.006 0 0 0 -5 5v21h-5a1 1 0 0 0 -1 1v32a1 1 0 0 0 1 1h24a1 1 0 0 0 1-1v-11h2v11a1 1 0 0 0 1 1h30a1 1 0 0 0 1-1v-12a1 1 0 0 0 -1-1zm-25.388-4h-7.612v-4h6.279zm15.388-6h-23v-4h26v1a3 3 0 0 1 -3 3zm-38-34h38a3 3 0 0 1 2.816 2h-43.632a3 3 0 0 1 2.816-2zm-3 4h44v24h-26v-3a1 1 0 0 0 -1-1h-11v-16a1 1 0 0 0 -2 0v16h-4zm16 52h-22v-30h22zm2-14h13a1 1 0 0 1 0 2h-13zm32 14h-28v-10h28z" fill="url(#New_Gradient_Swatch_3-14)"/><path d="m36 51h2v2h-2z" fill="url(#New_Gradient_Swatch_3-15)"/><path d="m39 51h2v2h-2z" fill="url(#New_Gradient_Swatch_3-16)"/><path d="m42 51h2v2h-2z" fill="url(#New_Gradient_Swatch_3-10)"/><path d="m45 51h2v2h-2z" fill="url(#New_Gradient_Swatch_3-18)"/><path d="m48 51h2v2h-2z" fill="url(#New_Gradient_Swatch_3-19)"/><path d="m51 51h2v2h-2z" fill="url(#New_Gradient_Swatch_3-20)"/><path d="m54 51h2v2h-2z" fill="url(#New_Gradient_Swatch_3-21)"/><path d="m36 54h2v2h-2z" fill="url(#New_Gradient_Swatch_3-15)"/><path d="m39 54h2v2h-2z" fill="url(#New_Gradient_Swatch_3-16)"/><path d="m42 54h2v2h-2z" fill="url(#New_Gradient_Swatch_3-10)"/><path d="m45 54h2v2h-2z" fill="url(#New_Gradient_Swatch_3-18)"/><path d="m48 54h2v2h-2z" fill="url(#New_Gradient_Swatch_3-19)"/><path d="m51 54h2v2h-2z" fill="url(#New_Gradient_Swatch_3-20)"/><path d="m54 54h2v2h-2z" fill="url(#New_Gradient_Swatch_3-21)"/><path d="m36 57h2v2h-2z" fill="url(#New_Gradient_Swatch_3-15)"/><path d="m39 57h14v2h-14z" fill="url(#New_Gradient_Swatch_3-18)"/><path d="m54 57h2v2h-2z" fill="url(#New_Gradient_Swatch_3-21)"/><g fill="url(#New_Gradient_Swatch_3-32)"><path d="m57 51h2v2h-2z"/><path d="m57 54h2v2h-2z"/><path d="m57 57h2v2h-2z"/></g><path d="m33 51h2v2h-2z" fill="url(#New_Gradient_Swatch_3-35)"/><path d="m33 54h2v2h-2z" fill="url(#New_Gradient_Swatch_3-35)"/><path d="m33 57h2v2h-2z" fill="url(#New_Gradient_Swatch_3-35)"/><path d="m17.5 36a2.5 2.5 0 0 0 0-5h-5a2.5 2.5 0 0 0 0 5h1.5v2.382l-3.447 1.718a1 1 0 0 0 0 1.79l3.447 1.728v2.382h-3a1 1 0 0 0 -1 1v4a1 1 0 0 0 1 1h3v2h-1.5a2.5 2.5 0 0 0 0 5h5a2.5 2.5 0 0 0 0-5h-1.5v-2h3a1 1 0 0 0 1-1v-4a1 1 0 0 0 -1-1h-3v-2.382l3.447-1.718a1 1 0 0 0 0-1.79l-3.447-1.728v-2.382zm.5 20.5a.5.5 0 0 1 -.5.5h-5a.5.5 0 0 1 0-1h5a.5.5 0 0 1 .5.5zm0-8.5v2h-6v-2zm-3-6.118-1.764-.882 1.764-.882 1.764.882zm-3-8.382a.5.5 0 0 1 .5-.5h5a.5.5 0 0 1 0 1h-5a.5.5 0 0 1 -.5-.5z" fill="url(#New_Gradient_Swatch_3-38)"/></svg>